<?xml version="1.0" encoding="UTF-8"?>
<svg width="62px" height="52px" viewBox="0 0 62 52" version="1.1" xmlns="http://www.w3.org/2000/svg" xmlns:xlink="http://www.w3.org/1999/xlink">
    <!-- Generator: Sketch 49 (51002) - http://www.bohemiancoding.com/sketch -->
    <title>微信</title>
    <desc>Created with Sketch.</desc>
    <defs></defs>
    <g id="账户改版" stroke="none" stroke-width="1" fill="none" fill-rule="evenodd">
        <g id="账户-奖励-分享图片" transform="translate(-54.000000, -1107.000000)">
            <g id="Group-9" transform="translate(0.000000, 1038.000000)">
                <g id="Group-8" transform="translate(30.000000, 40.000000)">
                    <g id="微信">
                        <path d="M68.5554507,46.8893924 C78.2155716,47.2708159 85.9090909,54.0171253 85.9090909,62.2835612 C85.9090909,67.4171352 82.9420188,71.9644592 78.3794686,74.7652162 C77.520134,75.2927254 80.2400732,79.7405085 79.2767069,80.13635 C78.6829437,80.3803239 74.4352897,76.6155849 73.807634,76.804781 C71.8960422,77.3809977 69.8372131,77.6947449 67.6917614,77.6947449 C59.8421049,77.6947449 53.152015,73.4948 50.5902294,67.6063521 C49.2954513,67.8128397 47.9611753,67.9207103 46.5980114,67.9207103 C43.8775296,67.9207103 41.2721044,67.4910766 38.8660711,66.7053619 C37.6560355,66.3102124 33.234701,70.9832359 32.1362555,70.4173183 C31.4818302,70.0801592 34.1108433,64.5561188 33.5021028,64.1636455 C28.0687041,60.6605703 24.5454545,55.0329439 24.5454545,48.6876279 C24.5454545,38.0654892 34.4187199,29.4545455 46.5980114,29.4545455 C58.082036,29.4545455 67.5158033,37.1104224 68.5554507,46.8893924 Z M64.7096057,47.0778565 C63.7254531,39.3454935 55.9921075,33.3251748 46.5980114,33.3251748 C36.5368576,33.3251748 28.3806818,40.2308326 28.3806818,48.7493942 C28.3806818,53.6046961 31.0303196,58.2755976 35.1721163,61.1029422 C35.389458,61.2513077 36.4784923,61.7562534 36.4069813,62.4763936 C36.2504753,64.0524613 35.7835614,65.1317349 35.7835614,65.1317349 C35.7835614,65.1317349 37.0589491,63.6495057 38.0100621,62.9354197 C38.4331634,62.6177596 39.2152784,62.8559203 39.4346087,62.9354188 C41.6333883,63.7323886 44.0548422,64.1736135 46.5980114,64.1736135 C47.6142433,64.1736135 48.6110405,64.1031612 49.5819612,63.9677106 C49.5108979,63.4145866 49.4744318,62.8526765 49.4744318,62.2835612 C49.4744318,54.6313641 56.0670928,48.2817799 64.7096057,47.0778565 Z M38.9275568,44.9370629 C37.3389536,44.9370629 36.0511364,43.6373582 36.0511364,42.0340909 C36.0511364,40.4308236 37.3389536,39.1311189 38.9275568,39.1311189 C40.51616,39.1311189 41.8039773,40.4308236 41.8039773,42.0340909 C41.8039773,43.6373582 40.51616,44.9370629 38.9275568,44.9370629 Z M54.2684659,44.9370629 C52.6798627,44.9370629 51.3920455,43.6373582 51.3920455,42.0340909 C51.3920455,40.4308236 52.6798627,39.1311189 54.2684659,39.1311189 C55.8570691,39.1311189 57.1448864,40.4308236 57.1448864,42.0340909 C57.1448864,43.6373582 55.8570691,44.9370629 54.2684659,44.9370629 Z M60.9801136,58.4842657 C62.0391825,58.4842657 62.8977273,57.6177959 62.8977273,56.548951 C62.8977273,55.4801062 62.0391825,54.6136364 60.9801136,54.6136364 C59.9210448,54.6136364 59.0625,55.4801062 59.0625,56.548951 C59.0625,57.6177959 59.9210448,58.4842657 60.9801136,58.4842657 Z M72.4857955,58.4842657 C73.5448643,58.4842657 74.4034091,57.6177959 74.4034091,56.548951 C74.4034091,55.4801062 73.5448643,54.6136364 72.4857955,54.6136364 C71.4267266,54.6136364 70.5681818,55.4801062 70.5681818,56.548951 C70.5681818,57.6177959 71.4267266,58.4842657 72.4857955,58.4842657 Z" id="wechat_s" fill="#8DC81B"></path>
                        <circle id="Oval" cx="54" cy="54" r="54"></circle>
                    </g>
                </g>
            </g>
        </g>
    </g>
</svg>